<?xml version="1.0" encoding="utf-8"?>
<!-- Generator: Adobe Illustrator 13.0.2, SVG Export Plug-In . SVG Version: 6.00 Build 14948)  -->
<!DOCTYPE svg PUBLIC "-//W3C//DTD SVG 1.1//EN" "http://www.w3.org/Graphics/SVG/1.1/DTD/svg11.dtd">
<svg version="1.1" id="Layer_1" xmlns="http://www.w3.org/2000/svg" xmlns:xlink="http://www.w3.org/1999/xlink" x="0px" y="0px"
	 width="301.89px" height="124.06px" viewBox="0 0 301.89 124.06" enable-background="new 0 0 301.89 124.06" xml:space="preserve">
<g>
	<g>
		<path fill="#243446" d="M138.75,58.497h12.705v2.043c0,10.312-7.734,15.467-23.2,15.467c-10.495,0-17.363-1.785-20.603-5.358
			c-3.241-3.571-4.861-11.139-4.861-22.702c0-10.274,1.694-17.18,5.082-20.714c3.388-3.536,9.998-5.303,19.83-5.303
			c9.427,0,15.742,1.722,18.947,5.165c3.204,3.443,4.806,10.21,4.806,20.299v3.867h-35.739c-0.074,1.178-0.11,1.951-0.11,2.32
			c0,5.191,0.801,8.653,2.403,10.384c1.602,1.731,4.796,2.597,9.583,2.597c4.64,0,7.659-0.506,9.059-1.52
			C138.049,64.03,138.75,61.848,138.75,58.497z M138.86,43.526l-0.056-2.098c0-4.199-0.728-6.924-2.182-8.176
			c-1.455-1.251-4.612-1.878-9.473-1.878c-4.714,0-7.78,0.755-9.197,2.265c-1.418,1.51-2.126,4.806-2.126,9.887H138.86z"/>
		<path fill="#243446" d="M155.548,22.593h12.649l-0.773,7.401l0.276,0.056c3.02-5.523,7.77-8.286,14.251-8.286
			c9.28,0,13.92,5.855,13.92,17.565v3.701h-11.932c0.147-1.437,0.222-2.375,0.222-2.817c0-5.634-2.191-8.451-6.574-8.451
			c-6.26,0-9.39,4.18-9.39,12.538v31.1h-12.649V22.593z"/>
		<path fill="#243446" d="M196.429,22.593h12.649l-0.773,7.401l0.276,0.056c3.02-5.523,7.77-8.286,14.252-8.286
			c9.279,0,13.92,5.855,13.92,17.565v3.701h-11.932c0.146-1.437,0.221-2.375,0.221-2.817c0-5.634-2.191-8.451-6.574-8.451
			c-6.26,0-9.39,4.18-9.39,12.538v31.1h-12.649V22.593z"/>
		<path fill="#243446" d="M250.126,37.894H237.2c0-6.334,1.473-10.568,4.42-12.705c2.945-2.135,8.782-3.203,17.51-3.203
			c9.5,0,15.926,1.307,19.277,3.922c3.35,2.615,5.026,7.604,5.026,14.969v34.523h-12.649l0.607-7.236l-0.331-0.056
			c-2.431,5.267-8.046,7.899-16.847,7.899c-12.779,0-19.168-5.432-19.168-16.295c0-10.973,6.537-16.461,19.609-16.461
			c8.728,0,14.03,2.008,15.908,6.021h0.221V40.71c0-4.123-0.718-6.857-2.154-8.203c-1.436-1.344-4.383-2.016-8.838-2.016
			C253.349,30.491,250.126,32.958,250.126,37.894z M258.577,51.757c-7.145,0-10.716,2.468-10.716,7.402
			c0,3.425,0.736,5.672,2.21,6.738c1.473,1.069,4.564,1.603,9.279,1.603c7.695,0,11.545-2.597,11.545-7.788
			C270.896,54.409,266.788,51.757,258.577,51.757z"/>
		<path fill="#243446" d="M301.89,0v10.55H289.24V0H301.89z M301.89,22.593v52.807H289.24V22.593H301.89z"/>
	</g>
</g>
<g>
	<g>
		<g>
			<g>
				<g>
					<linearGradient id="SVGID_1_" gradientUnits="userSpaceOnUse" x1="30.4121" y1="44.8828" x2="-1.0879" y2="13.3828">
						<stop  offset="0" style="stop-color:#AB710A"/>
						<stop  offset="1" style="stop-color:#E3A835"/>
					</linearGradient>
					<path fill="url(#SVGID_1_)" d="M72.466,13.636L12.09,3.675c-0.158-0.027-0.312-0.022-0.458,0.01
						c-0.144,0.031-0.279,0.089-0.396,0.168c-0.116,0.078-0.217,0.18-0.291,0.299c-0.076,0.118-0.127,0.254-0.146,0.402L0.01,87.431
						c-0.021,0.166-0.007,0.329,0.036,0.479c0.044,0.151,0.118,0.291,0.215,0.412s0.218,0.223,0.358,0.299
						c0.139,0.077,0.297,0.127,0.466,0.144l78.799,7.888l-21.269,18.691l7.006,8.717l34.272-30.811L71.215,57.36l-8.022,6.535
						l17.516,21.887l-66.567-7.248c-0.165-0.018-0.318-0.068-0.454-0.145c-0.136-0.075-0.256-0.176-0.352-0.295
						c-0.095-0.12-0.168-0.258-0.211-0.406c-0.044-0.148-0.058-0.309-0.038-0.473l7.398-60.543c0.019-0.15,0.068-0.288,0.142-0.408
						c0.074-0.122,0.172-0.225,0.288-0.307c0.115-0.082,0.248-0.142,0.392-0.175c0.143-0.033,0.297-0.04,0.454-0.015l39.643,6.227
						c0.147,0.022,0.286,0.074,0.409,0.147c0.124,0.073,0.232,0.168,0.32,0.278c0.089,0.111,0.157,0.236,0.2,0.371
						c0.043,0.135,0.061,0.279,0.047,0.427l-1.066,11.568l-28.126,21.38l2.467-22.396l-10.892-1.578l-4.866,41.289l41.735,4.725
						l0.962-10.783l-22.359-2.721l30.997-24.121l2.19-25.746c0.012-0.143-0.005-0.281-0.047-0.414
						c-0.042-0.131-0.109-0.255-0.196-0.362c-0.086-0.108-0.192-0.202-0.312-0.274C72.745,13.712,72.61,13.661,72.466,13.636"/>
				</g>
			</g>
		</g>
	</g>
</g>
</svg>
